<svg xmlns="http://www.w3.org/2000/svg" viewBox="0 0 1280 420" width="1280" height="420" style="background-color: #0b0f17; font-family: 'Inter', system-ui, -apple-system, BlinkMacSystemFont, 'Segoe UI Variable', 'Segoe UI', Roboto, 'Ubuntu', 'Cantarell', 'DejaVu Sans', 'Liberation Sans', sans-serif;">
  
  <!-- Defs: Effects, shadows and lights -->
  <defs>
    <!-- Electric blue aura for the mockup -->
    <radialGradient id="techGlow" cx="80%" cy="50%" r="60%">
      <stop offset="0%" stop-color="#0052ff" stop-opacity="0.3"/>
      <stop offset="100%" stop-color="#0b0f17" stop-opacity="0"/>
    </radialGradient>
    
    <!-- Shadows -->
    <filter id="browserShadow" x="-20%" y="-20%" width="140%" height="140%">
      <feDropShadow dx="8" dy="16" stdDeviation="20" flood-color="#000000" flood-opacity="0.6"/>
    </filter>
  </defs>

  <!-- Layer 1: background -->
  <rect width="1280" height="420" fill="url(#techGlow)" />

  <!-- Layer 2: Tech info -->
  <g transform="translate(80, 0)">
    
    <!-- App name -->
    <text y="130" fill="#FFFFFF" font-size="52" font-weight="900" letter-spacing="-1.5">
      Today app
    </text>
    
    <!-- UVP sub text -->
    <text y="185" fill="#9CA3AF" font-size="18" font-weight="400" line-height="1.5">
      <tspan x="0" dy="0">A minimalist, high-performance task manager built for</tspan>
      <tspan x="0" dy="26">clean architecture and structured daily productivity.</tspan>
    </text>
    
    <!-- Row: Tech stack -->
    <g transform="translate(0, 260)">
      <!-- Badge: React -->
      <g transform="translate(0, 0)">
        <rect width="78" height="28" rx="6" fill="#1e293b" stroke="#334155" stroke-width="1"/>
        <text x="39" y="18" fill="#0052ff" font-size="12" font-weight="700" text-anchor="middle" letter-spacing="0.5">REACT</text>
      </g>
      <!-- Badge: TypeScript -->
      <g transform="translate(90, 0)">
        <rect width="114" height="28" rx="6" fill="#1e293b" stroke="#334155" stroke-width="1"/>
        <text x="57" y="18" fill="#3178c6" font-size="12" font-weight="700" text-anchor="middle" letter-spacing="0.5">TYPESCRIPT</text>
      </g>
      <!-- Badge: Vite -->
      <g transform="translate(216, 0)">
        <rect width="64" height="28" rx="6" fill="#1e293b" stroke="#334155" stroke-width="1"/>
        <text x="32" y="18" fill="#ffc517" font-size="12" font-weight="700" text-anchor="middle" letter-spacing="0.5">VITE</text>
      </g>
    </g>
  </g>

  <!-- Layer 3: Browser Mockup -->
  <g transform="translate(680, 50)" filter="url(#browserShadow)">
    
    <!-- Browser -->
    <rect width="560" height="320" rx="12" fill="#161d2a" stroke="#222f43" stroke-width="2" />
    
    <!-- Top bar -->
    <path d="M0,34 L560,34" stroke="#222f43" stroke-width="1.5" />
    <!-- Control buttons -->
    <circle cx="20" cy="17" r="5" fill="#ef4444" opacity="0.8" />
    <circle cx="36" cy="17" r="5" fill="#eab308" opacity="0.8" />
    <circle cx="52" cy="17" r="5" fill="#22c55e" opacity="0.8" />
    <!-- URL bar -->
    <rect x="90" y="7" width="380" height="20" rx="6" fill="#0b0f17" opacity="0.6" />
    <text x="280" y="21" fill="#4b5563" font-size="10" text-anchor="middle">localhost:3000</text>

    <!-- Body: ui -->
    <g transform="translate(0, 34)">
      
      <!-- Sidebar panel -->
      <g transform="translate(20, 20)">
        <!-- Title "TAREAS" -->
        <rect width="50" height="8" rx="2" fill="#4b5563" opacity="0.4" />
        <!-- Input "Buscar..." -->
        <rect y="16" width="130" height="24" rx="6" fill="#0b0f17" stroke="#222f43" stroke-width="1" />
        <circle cx="12" cy="28" r="3" stroke="#4b5563" stroke-width="1" fill="none" />
        
        <!-- Categories secction -->
        <rect y="54" width="70" height="8" rx="2" fill="#4b5563" opacity="0.4" />
        <!-- row: Todas -->
        <g transform="translate(0, 72)">
          <rect width="130" height="24" rx="6" fill="#222f43" opacity="0.4" />
          <circle cx="12" cy="12" r="6" fill="#0052ff" />
          <path d="M9 12 L11 14 L15 10" stroke="#FFFFFF" stroke-width="1.5" fill="none" />
          <rect x="26" y="8" width="40" height="8" rx="2" fill="#FFFFFF" opacity="0.9" />
          <circle cx="118" cy="12" r="7" fill="#0052ff" />
        </g>
        <!-- row: Pendientes -->
        <g transform="translate(0, 104)">
          <circle cx="12" cy="12" r="6" stroke="#4b5563" stroke-width="1.5" fill="none" />
          <rect x="26" y="8" width="55" height="8" rx="2" fill="#9CA3AF" opacity="0.6" />
        </g>
        <!-- row: Completadas -->
        <g transform="translate(0, 136)">
          <circle cx="12" cy="12" r="6" stroke="#4b5563" stroke-width="1.5" fill="none" />
          <rect x="26" y="8" width="60" height="8" rx="2" fill="#9CA3AF" opacity="0.6" />
        </g>
        
        <!-- Delete complete tasks button -->
        <rect y="180" width="130" height="24" rx="6" fill="#0b0f17" stroke="#222f43" stroke-width="1" />
        <rect x="20" y="188" width="90" height="8" rx="2" fill="#9CA3AF" opacity="0.5" />
      </g>

      <!-- Breakline -->
      <path d="M170,0 L170,286" stroke="#222f43" stroke-width="1" />

      <!-- Mainboard: tasks -->
      <g transform="translate(190, 20)">
        <rect width="350" height="246" rx="10" fill="#001a4d" fill-opacity="0.4" stroke="#002b80" stroke-width="1" />
        
        <text x="175" y="30" fill="#FFFFFF" font-size="16" font-weight="700" text-anchor="middle">Mis Tareas</text>
        <text x="175" y="48" fill="#9CA3AF" font-size="11" text-anchor="middle">Tienes 1 asuntos por resolver hoy.</text>
        
        <!-- Task input -->
        <rect x="20" y="64" width="230" height="28" rx="6" fill="#0b0f17" stroke="#003399" stroke-width="1" />
        <rect x="32" y="74" width="110" height="8" rx="2" fill="#4b5563" opacity="0.6" />
        <!-- Add button -->
        <rect x="260" y="64" width="70" height="28" rx="6" fill="#222f43" />
        <rect x="277" y="74" width="36" height="8" rx="2" fill="#FFFFFF" opacity="0.8" />
        
        <!-- Task list -->
        <!-- 1: Realizada -->
        <g transform="translate(20, 106)">
          <rect width="310" height="34" rx="8" fill="#0b0f17" stroke="#222f43" stroke-width="1" opacity="0.6" />
          <circle cx="16" cy="17" r="7" fill="#0052ff" />
          <path d="M13 17 L15 19 L19 14" stroke="#FFFFFF" stroke-width="1.5" fill="none" />
          <rect x="36" y="13" width="70" height="8" rx="2" fill="#9CA3AF" opacity="0.4" />
          <rect x="282" y="11" width="12" height="12" rx="2" fill="#ef4444" opacity="0.3" />
        </g>
        
        <!-- 2: Pendiente -->
        <g transform="translate(20, 150)">
          <rect width="310" height="34" rx="8" fill="#0b0f17" stroke="#002b80" stroke-width="1" />
          <circle cx="16" cy="17" r="7" stroke="#4b5563" stroke-width="1.5" fill="none" />
          <rect x="36" y="13" width="55" height="8" rx="2" fill="#FFFFFF" opacity="0.9" />
          <rect x="282" y="11" width="12" height="12" rx="2" fill="#ef4444" opacity="0.3" />
        </g>
      </g>
    </g>
  </g>
</svg>